# xmcd
#
# Track frame offsets:
#	150
#	19807
#	35625
#	56482
#	71950
#	96477
#	113288
#	135184
#	160299
#	175964
#	192869
#	202417
#	210968
#	228968
#
# Disc length: 3283 seconds
# Revision: 0
# Processed by: cddbd v1.5.2PL0 Copyright (c) Steve Scherf et al.
# Submitted via: dBpowerAMP V12.0
#
DISCID=c20cd10e
DTITLE=Billy C Farlow and Mercy - Alabama Swamp Stomp
DYEAR=2011
DGENRE=Blues
TTITLE0=Snake Eyes
TTITLE1=Runnin' From The Fire
TTITLE2=Magnolia Darlin'
TTITLE3=Drive me Like a Mule
TTITLE4=Good Rocking Mama
TTITLE5=Tennessee Saturday Night
TTITLE6=My Name is Trouble
TTITLE7=What Have I Done
TTITLE8=Juke Joint Friday Night
TTITLE9=Alligator Crawl
TTITLE10=Yela  Pocahontas
TTITLE11=Black Lazarus
TTITLE12=Jenny's Comin' Home
TTITLE13=Wild About You
EXTD=
EXTT0=
EXTT1=
EXTT2=
EXTT3=
EXTT4=
EXTT5=
EXTT6=
EXTT7=
EXTT8=
EXTT9=
EXTT10=
EXTT11=
EXTT12=
EXTT13=
PLAYORDER=
